<svg width="255" height="15" viewBox="0 0 255 15" fill="none" xmlns="http://www.w3.org/2000/svg">
<path d="M10.246 1.364V3.83H6.89804V14H3.82004V3.83H0.472039V1.364H10.246ZM18.2348 14L15.6068 9.23H14.8688V14H11.7908V1.364H16.9568C17.9528 1.364 18.7988 1.538 19.4948 1.886C20.2028 2.234 20.7308 2.714 21.0788 3.326C21.4268 3.926 21.6008 4.598 21.6008 5.342C21.6008 6.182 21.3608 6.932 20.8808 7.592C20.4128 8.252 19.7168 8.72 18.7928 8.996L21.7088 14H18.2348ZM14.8688 7.052H16.7768C17.3408 7.052 17.7608 6.914 18.0368 6.638C18.3248 6.362 18.4688 5.972 18.4688 5.468C18.4688 4.988 18.3248 4.61 18.0368 4.334C17.7608 4.058 17.3408 3.92 16.7768 3.92H14.8688V7.052ZM31.399 11.768H26.683L25.927 14H22.705L27.277 1.364H30.841L35.413 14H32.155L31.399 11.768ZM30.607 9.392L29.041 4.766L27.493 9.392H30.607ZM48.1085 14H45.0305L39.8825 6.206V14H36.8045V1.364H39.8825L45.0305 9.194V1.364H48.1085V14ZM54.9116 14.126C53.9876 14.126 53.1596 13.976 52.4276 13.676C51.6956 13.376 51.1076 12.932 50.6636 12.344C50.2316 11.756 50.0036 11.048 49.9796 10.22H53.2556C53.3036 10.688 53.4656 11.048 53.7416 11.3C54.0176 11.54 54.3776 11.66 54.8216 11.66C55.2776 11.66 55.6376 11.558 55.9016 11.354C56.1656 11.138 56.2976 10.844 56.2976 10.472C56.2976 10.16 56.1896 9.902 55.9736 9.698C55.7696 9.494 55.5116 9.326 55.1996 9.194C54.8996 9.062 54.4676 8.912 53.9036 8.744C53.0876 8.492 52.4216 8.24 51.9056 7.988C51.3896 7.736 50.9456 7.364 50.5736 6.872C50.2016 6.38 50.0156 5.738 50.0156 4.946C50.0156 3.77 50.4416 2.852 51.2936 2.192C52.1456 1.52 53.2556 1.184 54.6236 1.184C56.0156 1.184 57.1376 1.52 57.9896 2.192C58.8416 2.852 59.2976 3.776 59.3576 4.964H56.0276C56.0036 4.556 55.8536 4.238 55.5776 4.01C55.3016 3.77 54.9476 3.65 54.5156 3.65C54.1436 3.65 53.8436 3.752 53.6156 3.956C53.3876 4.148 53.2736 4.43 53.2736 4.802C53.2736 5.21 53.4656 5.528 53.8496 5.756C54.2336 5.984 54.8336 6.23 55.6496 6.494C56.4656 6.77 57.1256 7.034 57.6296 7.286C58.1456 7.538 58.5896 7.904 58.9616 8.384C59.3336 8.864 59.5196 9.482 59.5196 10.238C59.5196 10.958 59.3336 11.612 58.9616 12.2C58.6016 12.788 58.0736 13.256 57.3776 13.604C56.6816 13.952 55.8596 14.126 54.9116 14.126ZM69.2799 11.768H64.5639L63.8079 14H60.5859L65.1579 1.364H68.7219L73.2939 14H70.0359L69.2799 11.768ZM68.4879 9.392L66.9219 4.766L65.3739 9.392H68.4879ZM74.1633 7.664C74.1633 6.416 74.4333 5.306 74.9733 4.334C75.5133 3.35 76.2633 2.588 77.2233 2.048C78.1953 1.496 79.2933 1.22 80.5173 1.22C82.0173 1.22 83.3013 1.616 84.3693 2.408C85.4373 3.2 86.1513 4.28 86.5113 5.648H83.1273C82.8753 5.12 82.5153 4.718 82.0473 4.442C81.5913 4.166 81.0693 4.028 80.4813 4.028C79.5333 4.028 78.7653 4.358 78.1773 5.018C77.5893 5.678 77.2953 6.56 77.2953 7.664C77.2953 8.768 77.5893 9.65 78.1773 10.31C78.7653 10.97 79.5333 11.3 80.4813 11.3C81.0693 11.3 81.5913 11.162 82.0473 10.886C82.5153 10.61 82.8753 10.208 83.1273 9.68H86.5113C86.1513 11.048 85.4373 12.128 84.3693 12.92C83.3013 13.7 82.0173 14.09 80.5173 14.09C79.2933 14.09 78.1953 13.82 77.2233 13.28C76.2633 12.728 75.5133 11.966 74.9733 10.994C74.4333 10.022 74.1633 8.912 74.1633 7.664ZM97.4863 1.364V3.83H94.1383V14H91.0603V3.83H87.7123V1.364H97.4863ZM102.109 1.364V14H99.031V1.364H102.109ZM110.316 14.126C109.128 14.126 108.036 13.85 107.04 13.298C106.056 12.746 105.27 11.978 104.682 10.994C104.106 9.998 103.818 8.882 103.818 7.646C103.818 6.41 104.106 5.3 104.682 4.316C105.27 3.332 106.056 2.564 107.04 2.012C108.036 1.46 109.128 1.184 110.316 1.184C111.504 1.184 112.59 1.46 113.574 2.012C114.57 2.564 115.35 3.332 115.914 4.316C116.49 5.3 116.778 6.41 116.778 7.646C116.778 8.882 116.49 9.998 115.914 10.994C115.338 11.978 114.558 12.746 113.574 13.298C112.59 13.85 111.504 14.126 110.316 14.126ZM110.316 11.318C111.324 11.318 112.128 10.982 112.728 10.31C113.34 9.638 113.646 8.75 113.646 7.646C113.646 6.53 113.34 5.642 112.728 4.982C112.128 4.31 111.324 3.974 110.316 3.974C109.296 3.974 108.48 4.304 107.868 4.964C107.268 5.624 106.968 6.518 106.968 7.646C106.968 8.762 107.268 9.656 107.868 10.328C108.48 10.988 109.296 11.318 110.316 11.318ZM129.794 14H126.716L121.568 6.206V14H118.49V1.364H121.568L126.716 9.194V1.364H129.794V14ZM140.412 14.126C139.488 14.126 138.66 13.976 137.928 13.676C137.196 13.376 136.608 12.932 136.164 12.344C135.732 11.756 135.504 11.048 135.48 10.22H138.756C138.804 10.688 138.966 11.048 139.242 11.3C139.518 11.54 139.878 11.66 140.322 11.66C140.778 11.66 141.138 11.558 141.402 11.354C141.666 11.138 141.798 10.844 141.798 10.472C141.798 10.16 141.69 9.902 141.474 9.698C141.27 9.494 141.012 9.326 140.7 9.194C140.4 9.062 139.968 8.912 139.404 8.744C138.588 8.492 137.922 8.24 137.406 7.988C136.89 7.736 136.446 7.364 136.074 6.872C135.702 6.38 135.516 5.738 135.516 4.946C135.516 3.77 135.942 2.852 136.794 2.192C137.646 1.52 138.756 1.184 140.124 1.184C141.516 1.184 142.638 1.52 143.49 2.192C144.342 2.852 144.798 3.776 144.858 4.964H141.528C141.504 4.556 141.354 4.238 141.078 4.01C140.802 3.77 140.448 3.65 140.016 3.65C139.644 3.65 139.344 3.752 139.116 3.956C138.888 4.148 138.774 4.43 138.774 4.802C138.774 5.21 138.966 5.528 139.35 5.756C139.734 5.984 140.334 6.23 141.15 6.494C141.966 6.77 142.626 7.034 143.13 7.286C143.646 7.538 144.09 7.904 144.462 8.384C144.834 8.864 145.02 9.482 145.02 10.238C145.02 10.958 144.834 11.612 144.462 12.2C144.102 12.788 143.574 13.256 142.878 13.604C142.182 13.952 141.36 14.126 140.412 14.126ZM149.938 1.364V8.924C149.938 9.68 150.124 10.262 150.496 10.67C150.868 11.078 151.414 11.282 152.134 11.282C152.854 11.282 153.406 11.078 153.79 10.67C154.174 10.262 154.366 9.68 154.366 8.924V1.364H157.444V8.906C157.444 10.034 157.204 10.988 156.724 11.768C156.244 12.548 155.596 13.136 154.78 13.532C153.976 13.928 153.076 14.126 152.08 14.126C151.084 14.126 150.19 13.934 149.398 13.55C148.618 13.154 148 12.566 147.544 11.786C147.088 10.994 146.86 10.034 146.86 8.906V1.364H149.938ZM159.083 7.664C159.083 6.416 159.353 5.306 159.893 4.334C160.433 3.35 161.183 2.588 162.143 2.048C163.115 1.496 164.213 1.22 165.437 1.22C166.937 1.22 168.221 1.616 169.289 2.408C170.357 3.2 171.071 4.28 171.431 5.648H168.047C167.795 5.12 167.435 4.718 166.967 4.442C166.511 4.166 165.989 4.028 165.401 4.028C164.453 4.028 163.685 4.358 163.097 5.018C162.509 5.678 162.215 6.56 162.215 7.664C162.215 8.768 162.509 9.65 163.097 10.31C163.685 10.97 164.453 11.3 165.401 11.3C165.989 11.3 166.511 11.162 166.967 10.886C167.435 10.61 167.795 10.208 168.047 9.68H171.431C171.071 11.048 170.357 12.128 169.289 12.92C168.221 13.7 166.937 14.09 165.437 14.09C164.213 14.09 163.115 13.82 162.143 13.28C161.183 12.728 160.433 11.966 159.893 10.994C159.353 10.022 159.083 8.912 159.083 7.664ZM172.794 7.664C172.794 6.416 173.064 5.306 173.604 4.334C174.144 3.35 174.894 2.588 175.854 2.048C176.826 1.496 177.924 1.22 179.148 1.22C180.648 1.22 181.932 1.616 183 2.408C184.068 3.2 184.782 4.28 185.142 5.648H181.758C181.506 5.12 181.146 4.718 180.678 4.442C180.222 4.166 179.7 4.028 179.112 4.028C178.164 4.028 177.396 4.358 176.808 5.018C176.22 5.678 175.926 6.56 175.926 7.664C175.926 8.768 176.22 9.65 176.808 10.31C177.396 10.97 178.164 11.3 179.112 11.3C179.7 11.3 180.222 11.162 180.678 10.886C181.146 10.61 181.506 10.208 181.758 9.68H185.142C184.782 11.048 184.068 12.128 183 12.92C181.932 13.7 180.648 14.09 179.148 14.09C177.924 14.09 176.826 13.82 175.854 13.28C174.894 12.728 174.144 11.966 173.604 10.994C173.064 10.022 172.794 8.912 172.794 7.664ZM190.105 3.83V6.386H194.227V8.762H190.105V11.534H194.767V14H187.027V1.364H194.767V3.83H190.105ZM201.337 14.126C200.413 14.126 199.585 13.976 198.853 13.676C198.121 13.376 197.533 12.932 197.089 12.344C196.657 11.756 196.429 11.048 196.405 10.22H199.681C199.729 10.688 199.891 11.048 200.167 11.3C200.443 11.54 200.803 11.66 201.247 11.66C201.703 11.66 202.063 11.558 202.327 11.354C202.591 11.138 202.723 10.844 202.723 10.472C202.723 10.16 202.615 9.902 202.399 9.698C202.195 9.494 201.937 9.326 201.625 9.194C201.325 9.062 200.893 8.912 200.329 8.744C199.513 8.492 198.847 8.24 198.331 7.988C197.815 7.736 197.371 7.364 196.999 6.872C196.627 6.38 196.441 5.738 196.441 4.946C196.441 3.77 196.867 2.852 197.719 2.192C198.571 1.52 199.681 1.184 201.049 1.184C202.441 1.184 203.563 1.52 204.415 2.192C205.267 2.852 205.723 3.776 205.783 4.964H202.453C202.429 4.556 202.279 4.238 202.003 4.01C201.727 3.77 201.373 3.65 200.941 3.65C200.569 3.65 200.269 3.752 200.041 3.956C199.813 4.148 199.699 4.43 199.699 4.802C199.699 5.21 199.891 5.528 200.275 5.756C200.659 5.984 201.259 6.23 202.075 6.494C202.891 6.77 203.551 7.034 204.055 7.286C204.571 7.538 205.015 7.904 205.387 8.384C205.759 8.864 205.945 9.482 205.945 10.238C205.945 10.958 205.759 11.612 205.387 12.2C205.027 12.788 204.499 13.256 203.803 13.604C203.107 13.952 202.285 14.126 201.337 14.126ZM212.412 14.126C211.488 14.126 210.66 13.976 209.928 13.676C209.196 13.376 208.608 12.932 208.164 12.344C207.732 11.756 207.504 11.048 207.48 10.22H210.756C210.804 10.688 210.966 11.048 211.242 11.3C211.518 11.54 211.878 11.66 212.322 11.66C212.778 11.66 213.138 11.558 213.402 11.354C213.666 11.138 213.798 10.844 213.798 10.472C213.798 10.16 213.69 9.902 213.474 9.698C213.27 9.494 213.012 9.326 212.7 9.194C212.4 9.062 211.968 8.912 211.404 8.744C210.588 8.492 209.922 8.24 209.406 7.988C208.89 7.736 208.446 7.364 208.074 6.872C207.702 6.38 207.516 5.738 207.516 4.946C207.516 3.77 207.942 2.852 208.794 2.192C209.646 1.52 210.756 1.184 212.124 1.184C213.516 1.184 214.638 1.52 215.49 2.192C216.342 2.852 216.798 3.776 216.858 4.964H213.528C213.504 4.556 213.354 4.238 213.078 4.01C212.802 3.77 212.448 3.65 212.016 3.65C211.644 3.65 211.344 3.752 211.116 3.956C210.888 4.148 210.774 4.43 210.774 4.802C210.774 5.21 210.966 5.528 211.35 5.756C211.734 5.984 212.334 6.23 213.15 6.494C213.966 6.77 214.626 7.034 215.13 7.286C215.646 7.538 216.09 7.904 216.462 8.384C216.834 8.864 217.02 9.482 217.02 10.238C217.02 10.958 216.834 11.612 216.462 12.2C216.102 12.788 215.574 13.256 214.878 13.604C214.182 13.952 213.36 14.126 212.412 14.126ZM227.14 1.364V3.83H221.992V6.494H225.844V8.888H221.992V14H218.914V1.364H227.14ZM231.782 1.364V8.924C231.782 9.68 231.968 10.262 232.34 10.67C232.712 11.078 233.258 11.282 233.978 11.282C234.698 11.282 235.25 11.078 235.634 10.67C236.018 10.262 236.21 9.68 236.21 8.924V1.364H239.288V8.906C239.288 10.034 239.048 10.988 238.568 11.768C238.088 12.548 237.44 13.136 236.624 13.532C235.82 13.928 234.92 14.126 233.924 14.126C232.928 14.126 232.034 13.934 231.242 13.55C230.462 13.154 229.844 12.566 229.388 11.786C228.932 10.994 228.704 10.034 228.704 8.906V1.364H231.782ZM244.527 11.624H248.559V14H241.449V1.364H244.527V11.624ZM254.077 0.913999L253.717 9.536H251.107L250.747 0.913999H254.077ZM252.457 14.144C251.917 14.144 251.473 13.988 251.125 13.676C250.789 13.352 250.621 12.956 250.621 12.488C250.621 12.008 250.789 11.606 251.125 11.282C251.473 10.958 251.917 10.796 252.457 10.796C252.985 10.796 253.417 10.958 253.753 11.282C254.101 11.606 254.275 12.008 254.275 12.488C254.275 12.956 254.101 13.352 253.753 13.676C253.417 13.988 252.985 14.144 252.457 14.144Z" fill="white"/>
</svg>
